<svg width="50px" height="50px" viewBox="0 0 0.938 0.938" fill="none" xmlns="http://www.w3.org/2000/svg"><path d="M0.313 0.297a0.031 0.031 0 0 1 0.048 0.021l0.009 0.053a0.037 0.037 0 0 1 -0.014 0.031L0.324 0.424A0.25 0.25 0 0 1 0.313 0.344z" fill="#000000"/><path d="M0.594 0.625A0.25 0.25 0 0 1 0.514 0.614L0.535 0.583A0.037 0.037 0 0 1 0.566 0.569l0.053 0.009A0.031 0.031 0 0 1 0.64 0.625z" fill="#000000"/><path fill-rule="evenodd" clip-rule="evenodd" d="M0 0.469a0.469 0.469 0 1 1 0.204 0.386L0.045 0.934A0.031 0.031 0 0 1 0.003 0.891L0.081 0.732A0.463 0.463 0 0 1 0 0.469M0.265 0.255l0.013 -0.009a0.094 0.094 0 0 1 0.145 0.063l0.009 0.053a0.1 0.1 0 0 1 -0.04 0.094L0.35 0.483a0.288 0.288 0 0 0 0.105 0.106L0.483 0.547A0.1 0.1 0 0 1 0.576 0.508l0.053 0.009a0.094 0.094 0 0 1 0.063 0.145l-0.009 0.013A0.037 0.037 0 0 1 0.656 0.688h-0.063A0.344 0.344 0 0 1 0.25 0.344v-0.063A0.037 0.037 0 0 1 0.265 0.255" fill="#000000"/></svg>